<svg width="114" height="114" viewBox="0 0 114 114" fill="none" xmlns="http://www.w3.org/2000/svg">
<g clip-path="url(#clip0_1027_1589)">
<path d="M53.3833 20.0687C57.8373 20.7575 60.9317 26.8021 60.267 33.6352C59.6135 40.4322 55.5182 45.4265 51.0532 44.7739C46.6243 44.1323 43.4938 38.0766 44.1223 31.2325C44.7397 24.4245 48.9073 19.4523 53.3833 20.0687ZM79.2335 27.9665C83.326 29.9679 83.9669 36.4093 80.7464 42.422C77.4064 48.4377 71.4622 51.7208 67.3949 49.7666C63.2913 47.8014 62.6866 41.3711 65.9794 35.3805C69.2471 29.3427 75.1913 26.0595 79.2335 27.9665ZM28.9598 30.7901C33.6226 30.2778 38.2434 35.2076 39.4598 41.7062C40.4623 48.258 37.6886 53.9724 33.062 54.4958C28.4353 55.0192 23.8396 50.1366 22.7176 43.5877C21.5957 37.0389 24.4526 31.3105 28.9598 30.7901ZM94.0372 50.6726C97.484 53.6231 96.6516 59.9701 92.0612 64.7737C87.4709 69.5773 80.9311 71.0578 77.3869 68.038C73.8428 65.0183 74.7364 58.7295 79.2293 53.8566C83.8699 49.1475 90.4569 47.6419 94.0372 50.6726ZM76.092 87.8021C75.1983 91.2448 71.4465 94.2095 67.9064 94.6696C60.5291 95.657 54.7422 87.1691 47.5475 84.971C40.3529 82.7729 30.6608 86.8083 25.2807 81.6465C22.2066 78.7704 21.1479 73.3082 22.8108 69.5471C25.1075 64.359 32.4627 63.4439 37.499 60.6739C44.1542 57.1337 50.6968 48.6574 57.9638 50.8776C65.1946 53.0868 66.144 63.6939 69.4231 70.4274C72.0886 76.0643 77.6394 81.8317 76.092 87.8021Z" fill="#91D5B0"/>
</g>
<defs>
<clipPath id="clip0_1027_1589">
<rect width="90.7293" height="90.7293" fill="white" transform="translate(26.5098) rotate(16.989)"/>
</clipPath>
</defs>
</svg>
