<svg width="77" height="76" viewBox="0 0 77 76" fill="none" xmlns="http://www.w3.org/2000/svg">
<g clip-path="url(#clip0_3208_7769)">
<rect width="35.0006" height="35.0001" transform="matrix(0.926246 -0.37692 0.376933 0.92624 0 13.2891)" fill="white"/>
<path d="M21.7064 20.2005C19.9233 20.926 19.2592 21.8592 18.8048 24.4105L18.694 25.0822L18.5386 26.2287C18.5213 26.3688 18.5043 26.509 18.4878 26.6493C18.4022 27.3674 18.1304 27.9803 17.577 28.8179L17.0347 29.6133C16.1096 30.9769 15.7149 31.9106 15.8035 33.1924C15.8218 33.7171 16.0076 34.4523 16.2464 35.0274C17.1738 37.3062 19.5105 38.4131 21.6744 37.5325L21.998 37.3914C22.1555 37.3179 22.3048 37.2398 22.4575 37.1509L22.7689 36.9565L22.9318 36.8461L23.2848 36.5875L23.4789 36.4377L24.1554 35.8948L25.0524 35.1471L25.5923 34.7133C26.2258 34.2193 26.74 33.8967 27.2033 33.7082C27.668 33.5191 28.2606 33.3929 29.0585 33.3028L29.7478 33.2364L30.9129 33.1433L31.7755 33.0615L32.2431 33.0035C32.3873 32.9826 32.5204 32.9615 32.6459 32.9372L33.0046 32.8589C33.176 32.816 33.3374 32.7676 33.5014 32.7103L33.8316 32.5854C35.9956 31.7048 36.8954 29.2808 35.9648 26.9939C35.7301 26.4172 35.35 25.7657 34.9673 25.3436C34.2505 24.4954 33.3805 24.0638 31.9621 23.6852L31.5105 23.5699L30.5884 23.3468C29.4629 23.0648 28.7795 22.7824 28.1934 22.3093L27.5621 21.8026L26.9842 21.3575C24.6862 19.6224 23.6448 19.4117 21.7064 20.2005ZM30.5665 11.8716L30.526 11.8881C28.8904 12.5852 27.9376 14.6198 27.9743 16.8689C28.018 19.6458 29.5491 22.0851 31.8082 22.1309C32.214 22.1374 32.6097 22.0614 32.9798 21.9108C34.6427 21.2341 35.6159 19.1802 35.5788 16.9107C35.5303 14.1374 33.9932 11.699 31.7441 11.6506C31.3411 11.6441 30.9397 11.7196 30.5665 11.8716ZM13.8399 12.3804C13.6886 12.4419 13.5911 12.4848 13.4834 12.5491L13.3666 12.6218C11.4104 13.7422 11.2221 16.6261 12.6382 18.9877C13.9538 21.1683 16.3248 22.3904 18.2943 21.589L18.5441 21.4794C18.5808 21.4607 18.6168 21.4408 18.6521 21.4197L18.7676 21.3476C20.7251 20.2266 20.9121 17.3433 19.496 14.9816C18.1819 12.7972 15.8121 11.5778 13.8399 12.3804Z" fill="#FE702C"/>
<path d="M21.8734 9.11128C19.9026 9.91327 19.0608 12.4412 19.6457 14.9191C20.2802 17.6004 22.4274 19.5339 24.708 18.9475C24.8543 18.9085 24.9892 18.8646 25.1188 18.8118C26.9964 18.0478 27.8586 15.7053 27.4203 13.3361L27.3493 13.0029C26.7147 10.3216 24.5675 8.38811 22.287 8.97448C22.1461 9.01046 22.0079 9.05617 21.8734 9.11128ZM9.54436 20.4262C9.17424 20.5768 8.83921 20.7982 8.55627 21.0818C6.96809 22.6964 7.57773 25.5138 9.48304 27.5299C11.0411 29.1804 13.1693 29.9723 14.8322 29.2957C15.2023 29.145 15.5373 28.9237 15.8203 28.6401C17.4084 27.0255 16.7988 24.2081 14.8935 22.1919C13.3354 20.5414 11.2072 19.7496 9.54436 20.4262Z" fill="#FE702C"/>
</g>
<g clip-path="url(#clip1_3208_7769)">
<rect width="35.0006" height="35.0002" transform="matrix(0.883413 0.468595 -0.46861 0.883405 46.0801 28.583)" fill="white"/>
<path d="M54.7061 49.6665C53.0055 48.7645 51.8637 48.8538 49.6152 50.1422L49.0289 50.4882L48.0498 51.1047C47.9312 51.1813 47.8127 51.2582 47.6945 51.3355C47.0888 51.7307 46.4443 51.9154 45.4467 52.0284L44.4887 52.1228C42.8492 52.2882 41.8798 52.5845 40.9535 53.4749C40.5627 53.8256 40.118 54.4399 39.8301 54.992C38.6772 57.1654 39.3274 59.6679 41.3913 60.7627L41.7072 60.9203C41.8646 60.9939 42.0203 61.0583 42.1865 61.1184L42.5354 61.2325L42.7246 61.2867L43.1494 61.3915L43.3888 61.4442L44.2394 61.6147L45.3884 61.8231L46.0676 61.9588C46.8529 62.1278 47.4303 62.3152 47.8722 62.5496C48.3154 62.7847 48.7924 63.1582 49.3734 63.7124L49.8667 64.1985L50.6856 65.0324L51.3018 65.6415L51.6463 65.963C51.7549 66.0602 51.8565 66.1487 51.9557 66.2294L52.2458 66.4543C52.3888 66.5582 52.5294 66.6509 52.6786 66.74L52.9863 66.9131C55.0502 68.0079 57.4868 67.1427 58.6438 64.9616C58.9356 64.4115 59.1915 63.702 59.2696 63.1377C59.4604 62.0436 59.2332 61.0994 58.6135 59.7687L58.4123 59.3482L57.9917 58.4979C57.4858 57.4536 57.264 56.7483 57.2508 55.9951L57.2344 55.1858L57.205 54.457C57.0615 51.5812 56.5549 50.6472 54.7061 49.6665ZM66.7795 51.1183L66.7409 51.0978C65.1567 50.2905 62.9848 50.8652 61.2832 52.3365C59.1812 54.1517 58.2926 56.8911 59.707 58.6533C59.9623 58.9687 60.2746 59.2234 60.6276 59.4107C62.2135 60.2519 64.4134 59.6805 66.1304 58.196C68.2265 56.3793 69.1106 53.6358 67.7046 51.8797C67.4511 51.5665 67.1356 51.307 66.7795 51.1183ZM55.6571 38.6153C55.5128 38.5388 55.4174 38.4915 55.299 38.4502L55.1683 38.4072C53.0538 37.6257 50.7209 39.3316 49.818 41.9331C48.9895 44.3413 49.5734 46.9439 51.4518 47.9403L51.6962 48.0617C51.734 48.0778 51.7724 48.0926 51.8112 48.1062L51.9407 48.1484C54.0565 48.9307 56.3881 47.2241 57.291 44.6226C58.1233 42.2132 57.5381 39.6131 55.6571 38.6153Z" fill="#FE702C"/>
<path d="M63.3188 42.6794C61.4392 41.6823 58.9601 42.6587 57.4347 44.6972C55.7851 46.9042 55.6798 49.7917 57.5928 51.1647C57.7166 51.2518 57.8368 51.3271 57.9605 51.3927C59.7513 52.3426 62.1012 51.5009 63.6372 49.6446L63.8472 49.3764C65.4968 47.1693 65.6021 44.2818 63.6891 42.9088C63.5711 42.8239 63.4474 42.7472 63.3188 42.6794ZM46.7293 40.4829C46.3763 40.2956 45.9915 40.1807 45.5924 40.1456C43.335 39.9634 41.5651 42.2387 41.2411 44.9938C40.9748 47.2478 41.7329 49.3883 43.3189 50.2295C43.6719 50.4167 44.0566 50.5317 44.4557 50.5667C46.7131 50.7489 48.483 48.4736 48.807 45.7186C49.0733 43.4645 48.3152 41.3241 46.7293 40.4829Z" fill="#FE702C"/>
</g>
<defs>
<clipPath id="clip0_3208_7769">
<rect width="35.0006" height="35.0001" fill="white" transform="matrix(0.926246 -0.37692 0.376933 0.92624 0 13.2891)"/>
</clipPath>
<clipPath id="clip1_3208_7769">
<rect width="35.0006" height="35.0002" fill="white" transform="matrix(0.883413 0.468595 -0.46861 0.883405 46.0801 28.583)"/>
</clipPath>
</defs>
</svg>
