<svg width="24" height="24" viewBox="0 0 24 24" fill="none" xmlns="http://www.w3.org/2000/svg">
<g id="Icons lage/cat">
<path id="Vector" d="M11.9986 4.99978C12.6686 4.99978 13.3486 5.08978 13.9986 5.25978C15.7786 3.25978 19.0286 2.41978 20.4186 2.99978C21.8186 3.57978 19.9986 9.99978 19.9986 9.99978C20.5686 11.0698 20.9986 12.2398 20.9986 13.4398C20.9986 17.8998 16.9686 20.9998 11.9986 20.9998C7.02861 20.9998 2.99861 17.9998 2.99861 13.4398C2.99861 12.1898 3.49861 11.0398 3.99861 9.99978C3.99861 9.99978 2.10861 3.57978 3.49861 2.99978C4.88861 2.41978 8.21861 3.22978 9.99861 5.22978C10.6546 5.07888 11.3255 5.00174 11.9986 4.99978Z" stroke="#131313" stroke-width="2" stroke-linecap="round" stroke-linejoin="round"/>
<path id="Vector_2" d="M8 14V14.5" stroke="#131313" stroke-width="2" stroke-linecap="round" stroke-linejoin="round"/>
<path id="Vector_3" d="M16 14V14.5" stroke="black" stroke-width="2" stroke-linecap="round" stroke-linejoin="round"/>
<path id="Vector_4" d="M11.25 16.25H12.75L12 17L11.25 16.25Z" stroke="black" stroke-width="2" stroke-linecap="round" stroke-linejoin="round"/>
</g>
</svg>
