<svg width="24" height="24" viewBox="0 0 24 24" fill="none" xmlns="http://www.w3.org/2000/svg">
<g id="maki:post">
<path id="Vector" d="M21.5991 5.84165C21.5991 6.01323 21.5568 6.18218 21.4759 6.33346C21.3949 6.48475 21.2779 6.6137 21.1351 6.70885L11.9991 12.8L2.86307 6.70885C2.67683 6.58494 2.53543 6.40437 2.45979 6.19386C2.38415 5.98334 2.37829 5.75407 2.44308 5.53997C2.50787 5.32587 2.63986 5.13831 2.81952 5.00505C2.99919 4.87179 3.21698 4.79991 3.44067 4.80005H20.5591C21.1351 4.80005 21.6007 5.26725 21.6007 5.84165H21.5991ZM21.5991 9.54725V17.6C21.5991 18.0244 21.4305 18.4314 21.1304 18.7314C20.8304 19.0315 20.4234 19.2 19.9991 19.2H3.99907C3.57472 19.2 3.16775 19.0315 2.8677 18.7314C2.56764 18.4314 2.39907 18.0244 2.39907 17.6V9.54725C2.39907 9.22725 2.75587 9.03685 3.02147 9.21445L11.9991 15.2L20.9767 9.21605C21.0368 9.17582 21.1067 9.15266 21.179 9.14903C21.2512 9.14539 21.3231 9.16142 21.387 9.1954C21.4508 9.22939 21.5043 9.28006 21.5416 9.34202C21.579 9.40398 21.5988 9.4749 21.5991 9.54725Z" fill="#F4F4F4"/>
</g>
</svg>
