<svg xmlns="http://www.w3.org/2000/svg">
<symbol id="facebook-icon" viewBox="0 0 32 32">
    <g>
        <path id="Vector"
              d="M27.867 2.66663H4.13366C3.74467 2.66663 3.37162 2.82115 3.09657 3.0962C2.82152 3.37126 2.66699 3.74431 2.66699 4.13329V27.8666C2.66699 28.2556 2.82152 28.6287 3.09657 28.9037C3.37162 29.1788 3.74467 29.3333 4.13366 29.3333H16.907V19H13.4403V15H16.907V12C16.8352 11.2956 16.9183 10.5841 17.1506 9.91534C17.3829 9.24656 17.7587 8.63669 18.2516 8.12851C18.7445 7.62033 19.3427 7.22615 20.0041 6.97361C20.6655 6.72107 21.3741 6.61629 22.0803 6.66663C23.1181 6.66024 24.1554 6.71366 25.187 6.82663V10.4266H23.067C21.387 10.4266 21.067 11.2266 21.067 12.3866V14.96H25.067L24.547 18.96H21.067V29.3333H27.867C28.0596 29.3333 28.2503 29.2954 28.4283 29.2216C28.6062 29.1479 28.7679 29.0399 28.9041 28.9037C29.0403 28.7675 29.1483 28.6058 29.222 28.4279C29.2957 28.2499 29.3337 28.0592 29.3337 27.8666V4.13329C29.3337 3.94069 29.2957 3.74997 29.222 3.57202C29.1483 3.39408 29.0403 3.2324 28.9041 3.0962C28.7679 2.96001 28.6062 2.85198 28.4283 2.77827C28.2503 2.70456 28.0596 2.66663 27.867 2.66663Z"
             />
    </g>
</symbol>
</svg>
