<svg width="32" height="32" viewBox="0 0 32 32" fill="none" xmlns="http://www.w3.org/2000/svg">
<g id="facebook icon">
<path id="Vector" d="M27.8667 2.66675H4.13335C3.74437 2.66675 3.37132 2.82127 3.09626 3.09632C2.82121 3.37138 2.66669 3.74443 2.66669 4.13341V27.8667C2.66669 28.2557 2.82121 28.6288 3.09626 28.9038C3.37132 29.1789 3.74437 29.3334 4.13335 29.3334H16.9067V19.0001H13.44V15.0001H16.9067V12.0001C16.8349 11.2958 16.918 10.5842 17.1503 9.91546C17.3826 9.24668 17.7584 8.63681 18.2513 8.12863C18.7442 7.62045 19.3424 7.22627 20.0038 6.97373C20.6652 6.72119 21.3738 6.61642 22.08 6.66675C23.1178 6.66036 24.1551 6.71378 25.1867 6.82675V10.4267H23.0667C21.3867 10.4267 21.0667 11.2267 21.0667 12.3867V14.9601H25.0667L24.5467 18.9601H21.0667V29.3334H27.8667C28.0593 29.3334 28.25 29.2955 28.428 29.2218C28.6059 29.1481 28.7676 29.04 28.9038 28.9038C29.04 28.7676 29.148 28.606 29.2217 28.428C29.2954 28.2501 29.3334 28.0594 29.3334 27.8667V4.13341C29.3334 3.94081 29.2954 3.75009 29.2217 3.57215C29.148 3.3942 29.04 3.23252 28.9038 3.09632C28.7676 2.96013 28.6059 2.8521 28.428 2.77839C28.25 2.70468 28.0593 2.66675 27.8667 2.66675Z" fill="#F4F4F4"/>
</g>
</svg>
