<svg width="32" height="32" viewBox="0 0 32 32" fill="none" xmlns="http://www.w3.org/2000/svg">
<g id="instagram icon/Default">
<path id="Vector" d="M17.3707 2.6679C18.3436 2.66417 19.3166 2.67395 20.2893 2.69723L20.548 2.70657C20.8467 2.71723 21.1413 2.73057 21.4973 2.74657C22.916 2.81323 23.884 3.03723 24.7333 3.36657C25.6133 3.70523 26.3547 4.1639 27.096 4.90523C27.7738 5.57138 28.2984 6.37716 28.6333 7.26657C28.9627 8.1159 29.1867 9.08523 29.2533 10.5039C29.2693 10.8586 29.2827 11.1546 29.2933 11.4532L29.3013 11.7119C29.325 12.6842 29.3352 13.6567 29.332 14.6292L29.3333 15.6239V17.3706C29.3366 18.3436 29.3264 19.3165 29.3027 20.2892L29.2947 20.5479C29.284 20.8466 29.2707 21.1412 29.2547 21.4972C29.188 22.9159 28.9613 23.8839 28.6333 24.7332C28.2995 25.6236 27.7748 26.43 27.096 27.0959C26.4293 27.7737 25.6231 28.2982 24.7333 28.6332C23.884 28.9626 22.916 29.1866 21.4973 29.2532C21.1413 29.2692 20.8467 29.2826 20.548 29.2932L20.2893 29.3012C19.3166 29.3249 18.3436 29.3352 17.3707 29.3319L16.376 29.3332H14.6307C13.6577 29.3365 12.6847 29.3263 11.712 29.3026L11.4533 29.2946C11.1368 29.2831 10.8204 29.2698 10.504 29.2546C9.08533 29.1879 8.11733 28.9612 7.26666 28.6332C6.37691 28.299 5.57098 27.7743 4.90533 27.0959C4.22672 26.4296 3.70163 25.6233 3.36666 24.7332C3.03733 23.8839 2.81333 22.9159 2.74666 21.4972C2.73181 21.1809 2.71848 20.8644 2.70666 20.5479L2.7 20.2892C2.67541 19.3165 2.6643 18.3436 2.66666 17.3706V14.6292C2.66294 13.6567 2.67272 12.6842 2.696 11.7119L2.70533 11.4532C2.716 11.1546 2.72933 10.8586 2.74533 10.5039C2.812 9.0839 3.036 8.11723 3.36533 7.26657C3.70049 6.37673 4.22661 5.57116 4.90666 4.90657C5.57186 4.22757 6.37728 3.702 7.26666 3.36657C8.11733 3.03723 9.084 2.81323 10.504 2.74657L11.4533 2.70657L11.712 2.6999C12.6842 2.67533 13.6568 2.66422 14.6293 2.66657L17.3707 2.6679ZM16 9.33457C15.1167 9.32207 14.2397 9.48527 13.42 9.81466C12.6003 10.144 11.8542 10.6331 11.2251 11.2533C10.5961 11.8735 10.0965 12.6126 9.75558 13.4276C9.41463 14.2425 9.23905 15.1172 9.23905 16.0006C9.23905 16.884 9.41463 17.7586 9.75558 18.5736C10.0965 19.3885 10.5961 20.1276 11.2251 20.7478C11.8542 21.3681 12.6003 21.8571 13.42 22.1865C14.2397 22.5159 15.1167 22.6791 16 22.6666C17.7681 22.6666 19.4638 21.9642 20.714 20.7139C21.9643 19.4637 22.6667 17.768 22.6667 15.9999C22.6667 14.2318 21.9643 12.5361 20.714 11.2859C19.4638 10.0356 17.7681 9.33457 16 9.33457ZM16 12.0012C16.5313 11.9914 17.0593 12.0876 17.5531 12.2842C18.0468 12.4807 18.4964 12.7737 18.8757 13.146C19.255 13.5182 19.5562 13.9623 19.7619 14.4524C19.9676 14.9424 20.0736 15.4685 20.0737 15.9999C20.0738 16.5313 19.968 17.0574 19.7624 17.5475C19.5569 18.0376 19.2558 18.4818 18.8767 18.8542C18.4975 19.2266 18.048 19.5197 17.5543 19.7164C17.0606 19.9131 16.5327 20.0095 16.0013 19.9999C14.9405 19.9999 13.923 19.5785 13.1729 18.8283C12.4228 18.0782 12.0013 17.0608 12.0013 15.9999C12.0013 14.939 12.4228 13.9216 13.1729 13.1715C13.923 12.4213 14.9405 11.9999 16.0013 11.9999L16 12.0012ZM23 7.33457C22.5699 7.35178 22.1631 7.53477 21.8648 7.8452C21.5666 8.15562 21.4 8.56941 21.4 8.9999C21.4 9.43039 21.5666 9.84418 21.8648 10.1546C22.1631 10.465 22.5699 10.648 23 10.6652C23.442 10.6652 23.8659 10.4896 24.1785 10.1771C24.4911 9.86452 24.6667 9.44059 24.6667 8.99857C24.6667 8.55654 24.4911 8.13262 24.1785 7.82006C23.8659 7.50749 23.442 7.3319 23 7.3319V7.33457Z" fill="#F4F4F4"/>
</g>
</svg>
