<svg width="199" height="189" viewBox="0 0 199 189" fill="none" xmlns="http://www.w3.org/2000/svg">
<g id="Group 62">
<g id="&#208;&#154;&#208;&#134;&#208;&#162; &#208;&#157;&#208;&#144; &#208;&#146;&#208;&#152;&#208;&#160;&#208;&#134;&#208;&#161;&#208;&#162;">
<path d="M20.0225 159.003C20.6167 159.003 21.1195 159.105 21.5309 159.309C21.9423 159.513 22.3204 159.819 22.6653 160.226C23.6127 161.352 24.0864 163.542 24.0864 166.797C24.0864 167.499 24.0449 168.137 23.9618 168.711C23.8787 169.278 23.7665 169.75 23.6252 170.127C23.4839 170.497 23.3156 170.811 23.1203 171.067C22.9292 171.324 22.7297 171.509 22.5219 171.622C22.3142 171.728 22.096 171.781 21.8675 171.781C21.3148 171.781 20.8432 171.43 20.4525 170.728C20.0661 170.018 19.8729 169.16 19.8729 168.156C19.8729 167.159 20.0661 166.306 20.4525 165.596C20.8432 164.886 21.3148 164.531 21.8675 164.531C21.8841 164.388 21.8924 164.237 21.8924 164.078C21.8924 163.527 21.7906 163.089 21.587 162.764C21.3834 162.432 21.1361 162.265 20.8452 162.265C20.4588 162.265 20.1534 162.579 19.929 163.206C19.7046 163.832 19.5695 164.727 19.5238 165.89C19.4366 168.065 19.181 169.87 18.7572 171.305C18.3375 172.74 17.7765 173.794 17.0742 174.466C17.5189 174.511 17.9095 174.598 18.246 174.726C18.5868 174.847 18.9192 175.044 19.2433 175.315C19.5675 175.58 19.8417 175.923 20.0661 176.346C20.2905 176.769 20.4858 177.313 20.652 177.978C20.8224 178.635 20.945 179.409 21.0198 180.3C21.0405 180.541 21.0655 180.855 21.0946 181.24C21.1236 181.618 21.1465 181.912 21.1631 182.124C21.1797 182.328 21.2026 182.573 21.2317 182.86C21.2608 183.139 21.2878 183.355 21.3127 183.506C21.3376 183.657 21.3688 183.808 21.4062 183.959C21.4436 184.11 21.4852 184.219 21.5309 184.287C21.5807 184.348 21.6348 184.378 21.6929 184.378C21.8217 184.378 21.9319 184.272 22.0233 184.061C22.1189 183.849 22.1957 183.536 22.2539 183.121C22.3121 182.698 22.3557 182.312 22.3848 181.965C22.4139 181.618 22.4471 181.165 22.4845 180.606C22.4928 180.47 22.4991 180.368 22.5032 180.3L24.261 180.628C24.2194 181.361 24.182 181.931 24.1488 182.339C24.1197 182.747 24.0698 183.253 23.9992 183.857C23.9285 184.461 23.8475 184.929 23.7561 185.262C23.6647 185.594 23.5379 185.964 23.3759 186.372C23.2179 186.772 23.033 187.074 22.8211 187.278C22.6092 187.474 22.3474 187.644 22.0357 187.788C21.7282 187.931 21.3792 188.003 20.9886 188.003C20.706 188.003 20.4463 187.98 20.2095 187.935C19.9726 187.89 19.7524 187.814 19.5488 187.708C19.3493 187.603 19.1665 187.486 19.0002 187.357C18.834 187.229 18.6782 187.055 18.5328 186.836C18.3873 186.617 18.2564 186.398 18.1401 186.179C18.0279 185.953 17.9178 185.669 17.8097 185.329C17.7017 184.99 17.6061 184.661 17.523 184.344C17.4441 184.019 17.3589 183.626 17.2675 183.166C17.176 182.698 17.095 182.252 17.0244 181.829C16.9537 181.406 16.8727 180.896 16.7813 180.3C16.6691 179.575 16.5631 179.005 16.4634 178.589C16.3678 178.166 16.2452 177.8 16.0956 177.49C15.946 177.181 15.7674 176.969 15.5596 176.856C15.356 176.735 15.0983 176.675 14.7867 176.675H13.7894V183.925H15.784V187.55H7.80566V183.925H9.80024V163.081H7.80566V159.456H15.036V163.081H13.7894V173.05H14.288C14.4709 173.042 14.6329 172.914 14.7742 172.665C14.9197 172.408 15.0402 172.087 15.1357 171.702C15.2355 171.309 15.3269 170.784 15.41 170.127C15.4931 169.47 15.5596 168.832 15.6095 168.213C15.6635 167.586 15.7217 166.812 15.784 165.89C15.8712 164.561 16.0458 163.425 16.3076 162.481C16.5694 161.537 16.8935 160.831 17.2799 160.362C18.0154 159.456 18.9296 159.003 20.0225 159.003Z" fill="#A25CB4"/>
<path d="M25.7569 159.456H33.7352V163.081H31.7406V183.925H33.7352V187.55H25.7569V183.925H27.7515V163.081H25.7569V159.456Z" fill="#A25CB4"/>
<path d="M35.1065 159.456H49.5672V168.519H47.3233V166.706C47.3233 166.336 47.3046 165.955 47.2672 165.562C47.2339 165.169 47.1799 164.78 47.1051 164.395C47.0345 164.01 46.9306 163.697 46.7935 163.455C46.6563 163.206 46.5005 163.081 46.326 163.081H44.3314V183.925H46.326V187.55H38.3477V183.925H40.3423V163.081H38.3477C38.1731 163.081 38.0173 163.206 37.8802 163.455C37.7431 163.697 37.6371 164.01 37.5623 164.395C37.4917 164.78 37.4376 165.169 37.4002 165.562C37.367 165.955 37.3504 166.336 37.3504 166.706V168.519H35.1065V159.456Z" fill="#A25CB4"/>
<path d="M67.1444 159.456H75.1227V163.081H73.1282V183.925H75.1227V187.55H67.1444V183.925H69.139V176.675H63.6539V183.925H65.6485V187.55H57.6702V183.925H59.6647V163.081H57.6702V159.456H65.6485V163.081H63.6539V173.05H69.139V163.081H67.1444V159.456Z" fill="#A25CB4"/>
<path d="M83.5997 159.456H86.3422L92.3073 183.925H93.8219V187.55H85.8436V183.925H87.8382L86.9531 180.3H81.3184L80.4894 183.925H84.3477V187.55H76.3693V183.925H77.9962L83.5997 159.456ZM82.1474 176.675H86.068L84.5222 170.331C84.3227 169.5 84.1648 168.685 84.0485 167.884C83.8864 168.926 83.7368 169.742 83.5997 170.331L82.1474 176.675Z" fill="#A25CB4"/>
<path d="M101.8 159.456H108.283C109.791 159.456 110.973 159.543 111.829 159.717C112.689 159.89 113.358 160.162 113.836 160.532C114.318 160.895 114.761 161.442 115.164 162.175C115.525 162.832 115.798 163.659 115.98 164.656C116.167 165.645 116.261 166.706 116.261 167.839C116.261 168.957 116.053 170.063 115.638 171.158C115.222 172.253 114.649 173.227 113.917 174.081C114.769 174.579 115.413 175.297 115.85 176.233C116.29 177.162 116.51 178.366 116.51 179.847C116.51 182.377 116.045 184.314 115.114 185.658C114.91 185.953 114.705 186.202 114.497 186.406C114.289 186.61 114.036 186.783 113.737 186.927C113.437 187.07 113.14 187.184 112.845 187.267C112.55 187.342 112.153 187.403 111.655 187.448C111.156 187.493 110.666 187.523 110.184 187.538C109.706 187.546 109.072 187.55 108.283 187.55H101.8V183.925H103.795V163.081H101.8V159.456ZM107.784 163.081V173.05H108.781C110.776 173.05 111.773 171.388 111.773 168.065C111.773 167.348 111.752 166.74 111.711 166.242C111.669 165.736 111.594 165.271 111.486 164.848C111.383 164.425 111.237 164.093 111.05 163.851C110.863 163.602 110.624 163.413 110.333 163.285C110.042 163.149 109.691 163.081 109.28 163.081H107.784ZM107.784 176.675V183.925H109.28C110.281 183.925 110.988 183.657 111.399 183.121C111.815 182.584 112.022 181.644 112.022 180.3C112.022 179.378 111.919 178.661 111.711 178.147C111.507 177.626 111.175 177.253 110.714 177.026C110.252 176.792 109.608 176.675 108.781 176.675H107.784Z" fill="#A25CB4"/>
<path d="M117.757 159.456H125.735V163.081H123.741V177.604L129.506 159.456H135.209V163.081H133.215V183.925H135.209V187.55H127.231V183.925H129.226V169.402L123.46 187.55H117.757V183.925H119.751V163.081H117.757V159.456Z" fill="#A25CB4"/>
<path d="M136.705 187.55V183.925H138.7V163.081H136.705V159.456H143.188C144.696 159.456 145.878 159.543 146.734 159.717C147.595 159.89 148.264 160.162 148.741 160.532C149.223 160.895 149.666 161.442 150.069 162.175C150.431 162.832 150.703 163.659 150.886 164.656C151.073 165.645 151.166 166.706 151.166 167.839C151.166 168.76 151.1 169.614 150.967 170.399C150.838 171.177 150.653 171.868 150.412 172.472C150.175 173.069 149.882 173.605 149.533 174.081C149.188 174.549 148.806 174.945 148.386 175.27C147.966 175.595 147.501 175.863 146.99 176.074C146.483 176.286 145.957 176.441 145.413 176.539C144.873 176.629 144.297 176.675 143.686 176.675H142.689V183.925H145.182V187.55H136.705ZM142.689 173.05H143.686C145.681 173.05 146.678 171.388 146.678 168.065C146.678 167.491 146.655 166.97 146.61 166.502C146.568 166.034 146.489 165.581 146.373 165.143C146.257 164.705 146.107 164.338 145.924 164.044C145.741 163.749 145.502 163.515 145.207 163.342C144.912 163.168 144.572 163.081 144.185 163.081H142.689V173.05Z" fill="#A25CB4"/>
<path d="M152.288 159.456H160.266V163.081H158.272V183.925H160.266V187.55H152.288V183.925H154.283V163.081H152.288V159.456Z" fill="#A25CB4"/>
<path d="M169.491 159.003C171.673 159.003 173.418 160.06 174.727 162.175C175.263 163.036 175.645 163.904 175.874 164.78C176.107 165.649 176.223 166.744 176.223 168.065C176.223 169.07 176.028 169.927 175.637 170.637C175.251 171.339 174.781 171.69 174.228 171.69C173.676 171.69 173.204 171.339 172.814 170.637C172.427 169.927 172.234 169.07 172.234 168.065C172.234 167.552 172.29 167.069 172.402 166.615C172.514 166.155 172.67 165.754 172.87 165.415C172.57 164.403 172.165 163.685 171.654 163.262C171.147 162.839 170.509 162.628 169.741 162.628C169.238 162.628 168.77 162.813 168.338 163.183C167.91 163.553 167.538 164.07 167.222 164.735C166.911 165.4 166.643 166.185 166.418 167.091C166.194 167.997 166.026 168.994 165.914 170.082C165.805 171.162 165.751 172.302 165.751 173.503C165.751 174.689 165.818 175.829 165.951 176.924C166.084 178.019 166.277 179.016 166.531 179.915C166.784 180.813 167.081 181.599 167.422 182.271C167.763 182.935 168.153 183.453 168.594 183.823C169.038 184.193 169.504 184.378 169.99 184.378C170.696 184.378 171.353 184.034 171.96 183.347C172.57 182.66 173.075 181.697 173.474 180.458C173.877 179.212 174.129 177.8 174.228 176.222L176.223 177.128C176.123 178.012 176.007 178.835 175.874 179.597C175.741 180.353 175.575 181.108 175.375 181.863C175.176 182.611 174.949 183.287 174.696 183.891C174.442 184.495 174.143 185.058 173.798 185.579C173.453 186.1 173.073 186.538 172.658 186.893C172.242 187.24 171.766 187.512 171.23 187.708C170.694 187.905 170.115 188.003 169.491 188.003C168.747 188.003 168.037 187.859 167.36 187.572C166.686 187.293 166.076 186.9 165.527 186.394C164.983 185.888 164.48 185.284 164.019 184.582C163.557 183.879 163.159 183.105 162.822 182.26C162.485 181.406 162.199 180.504 161.962 179.552C161.729 178.593 161.555 177.607 161.438 176.596C161.322 175.576 161.264 174.545 161.264 173.503C161.264 172.461 161.322 171.434 161.438 170.422C161.555 169.402 161.729 168.417 161.962 167.465C162.199 166.506 162.485 165.603 162.822 164.758C163.159 163.904 163.557 163.126 164.019 162.424C164.48 161.722 164.983 161.118 165.527 160.612C166.076 160.106 166.686 159.713 167.36 159.433C168.037 159.146 168.747 159.003 169.491 159.003Z" fill="#A25CB4"/>
<path d="M177.345 159.456H191.806V168.519H189.562V166.706C189.562 166.336 189.543 165.955 189.506 165.562C189.472 165.169 189.418 164.78 189.344 164.395C189.273 164.01 189.169 163.697 189.032 163.455C188.895 163.206 188.739 163.081 188.564 163.081H186.57V183.925H188.564V187.55H180.586V183.925H182.581V163.081H180.586C180.412 163.081 180.256 163.206 180.119 163.455C179.982 163.697 179.876 164.01 179.801 164.395C179.73 164.78 179.676 165.169 179.639 165.562C179.605 165.955 179.589 166.336 179.589 166.706V168.519H177.345V159.456Z" fill="#A25CB4"/>
</g>
<g id="&#208;&#168;&#208;&#176;&#209;&#128; 1">
<path id="Vector" d="M187.483 126.627C188.182 133.938 188.377 141.264 188.442 148.597C188.459 150.412 187.646 151.572 185.142 151.557C170.056 151.477 154.971 151.52 139.885 151.506C138.885 151.506 137.885 151.309 136.877 151.2C135.081 150.485 133.309 150.478 131.318 150.646C125.278 151.156 119.198 151.083 113.143 150.668C111.964 150.587 110.761 150.361 109.55 150.361C98.6097 150.347 87.6691 150.23 76.7286 150.391C67.7307 150.522 58.7328 150.952 49.7267 150.886C47.8572 150.369 45.9227 150.303 43.9882 150.318C36.4046 149.793 28.8048 150.223 21.2049 150.084C19.7825 150.063 18.3682 150.106 16.9457 150.063C16.1329 150.041 15.1331 150.026 15.0518 149.1C14.9543 148 16.076 147.905 16.962 147.774C17.8642 147.643 18.7827 147.701 19.693 147.694C26.9922 147.694 34.2913 147.723 41.5904 147.679C45.1993 147.657 45.305 147.519 45.3375 144.268C45.3456 143.087 45.3131 141.906 45.3456 140.725C45.37 139.814 45.2237 138.596 46.9713 138.859C47.1826 138.888 47.3126 139.077 47.3452 138.939C47.4183 138.669 47.2964 138.407 47.2801 138.137C47.1582 136.504 46.7843 134.893 46.825 133.253C46.9387 132.903 46.3942 133.064 46.8006 133.1C46.8737 133.1 46.825 133.195 46.8006 133.37C46.7193 133.909 46.703 134.631 46.0365 134.697C45.0936 134.791 45.0124 133.953 44.9067 133.355C44.6547 131.912 44.6872 130.447 44.7929 129.003C45.1099 124.666 45.2725 120.314 45.6951 115.985C45.9227 113.601 46.2397 113.579 48.6863 115.35C47.3289 111.429 50.1413 107.871 49.4585 104.598C49.8161 105.349 49.4016 106.596 49.1903 107.828C49.0277 108.746 48.223 109.307 47.2314 109.191C46.2397 109.081 46.1097 108.178 46.1422 107.471C46.256 105.021 46.8575 102.616 47.3695 100.225C47.8735 97.8703 47.7597 95.5304 47.8166 93.176C50.2144 77.5474 56.1561 63.5736 71.3965 54.2869C77.3301 50.6713 84.0683 48.674 91.3918 48.7251C93.9197 49.177 96.4557 49.1624 98.9836 48.7251C102.601 48.3606 106.031 49.2572 109.428 50.1101C116.069 51.7866 122.572 53.7475 127.985 57.8806C136.568 64.4338 141.527 72.8749 144.396 82.4678C145.079 84.7494 145.631 87.0528 146.103 89.3782C146.306 90.3841 146.712 91.1131 148.094 90.8652C149.517 90.6101 150.809 90.7632 151.297 92.1992C151.784 93.6425 150.939 94.7432 149.638 95.3992C147.484 96.4854 147.314 98.1692 147.419 100.072C147.493 101.347 147.964 102.171 149.549 102.149C149.85 102.149 150.248 102.127 150.427 102.295C153.117 104.875 154.45 102.426 156.019 101.063C159.539 98.0016 163.269 95.2534 168.065 93.9268C168.845 93.7081 169.561 93.3582 170.17 92.8698C172.007 91.4119 173.617 91.6014 175.031 93.3801C175.21 93.5987 175.348 93.8757 175.6 94.0142C182.241 97.7318 180.745 103.286 179.136 108.425C177.372 114.053 173.226 118.725 169.829 123.66C165.245 130.323 161.172 137.197 157.994 144.493C156.864 147.103 156.921 147.161 160.116 147.169C166.805 147.176 173.487 147.183 180.176 147.169C184.094 147.169 184.541 146.724 183.931 143.152C183.419 140.171 183.37 137.197 183.785 134.201C184.321 132.583 184.232 130.993 183.492 129.441C183.102 128.398 182.834 127.334 182.834 126.248C182.834 117.027 182.346 107.791 183.622 98.592C184.11 97.2945 184.07 95.9386 184.175 94.5901C184.232 93.8757 184.33 92.9646 185.281 92.8844C186.175 92.8115 186.736 93.5769 186.784 94.3204C186.971 97.1414 188.321 99.8968 187.451 102.783C186.744 103.782 187.085 104.89 187.085 105.947C187.053 111.975 187.044 118.004 187.085 124.039C187.085 124.892 186.671 125.84 187.483 126.613V126.627Z" fill="#78617E"/>
<path id="Vector_2" d="M48.5967 92.7238C49.06 97.2869 47.9627 101.712 47.0604 106.151C46.8816 107.033 46.2314 108.462 47.4994 108.658C48.9624 108.884 48.6454 107.208 48.9624 106.362C49.5639 104.744 47.857 103.038 49.4095 100.859C50.8807 106.967 48.3853 112.507 49.0437 118.135C47.3612 117.26 48.8324 114.978 46.459 114.461C46.5484 121.072 45.1991 127.618 45.7599 134.718C46.6622 132.801 45.7437 131.175 46.8735 129.732C47.3774 133.45 48.4666 137.109 48.1659 141.053C46.9467 140.601 47.0686 139.624 46.2314 138.727C46.2314 141.279 46.0282 143.436 46.2801 145.543C46.589 148.065 44.9878 148.444 42.8663 148.451C36.9896 148.466 31.1129 148.459 25.2281 148.459C22.0256 148.459 18.8231 148.459 15.1167 148.459C16.2871 149.924 17.4657 149.523 18.433 149.53C25.8296 149.567 33.2344 149.53 40.631 149.567C41.6958 149.567 42.8907 149.202 43.7848 150.091C39.3874 150.675 34.9657 150.208 30.5602 150.361C26.4555 150.507 22.3345 150.062 18.2379 150.609C16.9374 150.638 15.6125 150.529 14.3363 150.718C11.2151 151.185 10.1016 149.589 9.97151 147.27C9.73579 142.97 9.7114 138.669 9.59761 134.361C11.7597 134.047 11.6784 135.607 11.459 136.57C10.7193 139.762 12.727 142.86 11.6622 146.068C11.4508 146.695 11.6622 147.686 12.1499 148.284C11.5646 141.738 12.3043 134.959 10.0853 128.456C10.3291 130.476 11.2964 132.509 9.62199 134.427C8.84169 132.961 9.23184 131.394 9.1912 129.885C9.01238 122.537 8.57346 115.204 7.95571 107.871C7.83379 106.45 7.29733 105.619 6.00495 104.817C-1.40796 100.239 -1.70058 99.3571 3.7128 93.1903C28.9346 64.4481 53.2379 35.0499 80.7437 7.97696C82.922 5.83387 85.3036 3.84386 87.4413 1.67161C89.5059 -0.427741 91.3916 -0.522504 93.8788 1.23425C102.552 7.36465 110.818 13.8887 118.775 20.7334C118.727 20.974 118.621 21.2 118.458 21.4041C118.141 24.0064 120.986 24.1376 122.352 25.406C122.588 25.457 122.815 25.5445 123.027 25.6319C123.409 25.7923 123.791 26.011 124.246 25.7996C124.441 25.734 124.644 25.683 124.847 25.6465C127.131 27.068 129.09 28.8101 131 30.6033C130.561 31.7332 129.553 32.2653 128.383 32.6371C127.245 32.8558 126.44 32.2872 125.693 31.6603C117.556 24.8447 109.087 18.3571 100.861 11.6362C98.6907 9.86492 96.4067 8.21022 94.1064 6.5701C90.9852 4.34683 89.896 4.37599 87.3194 7.13868C83.808 10.9 80.0121 14.4281 76.6145 18.2696C65.7797 30.5013 53.8068 41.8728 43.1508 54.2429C34.4861 64.3096 26.1629 74.6096 17.0837 84.3847C13.5804 88.1606 10.3617 92.1187 7.06161 96.0259C4.80198 98.7011 4.85074 98.8469 7.76064 101.048C8.36212 101.675 8.95548 102.054 9.50007 100.983C16.027 92.6436 23.4155 84.9168 30.2188 76.7745C38.4771 66.8901 46.9141 57.1295 55.6438 47.5731C62.6341 39.9192 70.0307 32.5788 77.2567 25.1071C80.703 21.5426 84.1006 17.9343 87.2869 14.173C89.7253 11.2936 90.5463 11.177 93.6025 13.4878C102.194 19.9753 110.647 26.6087 119.109 33.2348C126.961 39.3871 134.942 45.4008 142.851 51.4875C152.987 59.2872 163.294 66.9119 173.104 75.0469C175.096 76.7016 177.583 77.9044 178.965 80.1276C179.062 80.3682 179.103 80.6087 179.111 80.8639C179.656 82.606 181.468 83.9837 180.989 86.0248C180.867 86.2726 180.647 86.4184 180.347 86.4622C177.941 85.5801 176.242 83.8234 174.405 82.329C159.782 70.4254 144.68 59.0248 129.594 47.6095C117.442 38.4176 105.77 28.7299 93.4805 19.6838C91.7655 18.4227 90.4731 18.1093 88.9288 19.8514C80.3698 29.5318 70.9329 38.5342 62.1057 48.0177C52.6852 58.1355 43.6466 68.5083 34.9169 79.1071C27.691 87.8763 19.6766 96.0915 12.6782 105.014C12.4994 105.24 12.2393 105.385 11.9548 105.488C11.2476 106.559 11.906 107.864 11.2476 108.95C11.524 108.607 11.841 108.454 12.2799 108.746C13.4991 110.699 12.9789 112.77 12.8082 114.818C12.8245 116.181 11.142 117.661 13.1496 118.9C13.6942 119.826 13.7349 120.832 13.6861 121.823C13.3203 128.901 14.5395 135.928 14.3445 143.006C14.2551 146.133 14.7021 146.476 18.1322 146.505C25.4151 146.556 32.6979 146.469 39.9808 146.549C42.3949 146.578 43.4109 145.783 43.6141 143.604C43.8336 141.257 44.1018 138.917 44.053 136.555C43.7848 123.398 44.6057 110.299 46.6215 97.2651C46.8654 95.6687 46.5077 93.737 48.5804 92.7238H48.5967Z" fill="#78617E"/>
<path id="Vector_3" d="M128.27 32.5573C128.936 31.6316 130.009 31.1578 131.009 30.6184C133.407 32.4188 135.804 34.2193 139.113 36.705C139.113 32.6958 139.064 29.3427 139.129 25.9896C139.202 21.8346 140.478 20.4205 145.062 19.8883C152.305 19.05 159.596 18.8459 166.887 18.948C171.512 19.0136 172.568 20.0414 172.723 24.2255C172.999 31.4785 173.097 38.7388 173.267 45.9918C173.088 47.7704 172.674 49.549 173.454 51.2985C174.299 54.8557 173.942 58.4858 174.113 62.0722C174.202 63.9019 174.787 65.265 176.397 66.4969C181.973 70.7758 187.418 75.1859 192.913 79.5522C193.141 80.0698 194.002 80.4999 193.189 81.1559C192.45 81.7537 191.613 81.8849 190.702 81.5277C189.507 81.0612 188.532 80.252 187.305 79.8511C184.468 78.8816 182.525 76.7968 180.363 75.0765C171.373 67.911 162.587 60.5341 153.54 53.427C146.542 47.9307 139.527 42.4564 132.496 37.0039C130.846 35.7282 128.83 34.6859 128.278 32.5573H128.27Z" fill="#78617E"/>
<path id="Vector_4" d="M49.1333 150.537C57.7329 150.894 66.2757 150.129 74.8346 149.611C79.3783 149.334 83.9545 149.545 88.5225 149.545C94.4073 149.545 100.284 149.443 106.161 149.567C113.362 149.72 120.483 151.28 127.733 150.624C129.017 150.508 130.171 150.639 131.561 149.83C133.154 148.904 135.471 149.538 136.885 151.193C121.686 151.193 106.478 151.229 91.278 151.193C77.3869 151.164 63.5039 151.069 49.6129 150.989C48.8163 150.989 47.9872 151.156 47.2476 150.726C47.8165 150.18 48.483 150.347 49.1496 150.529L49.1333 150.537Z" fill="#78617E"/>
<path id="Vector_5" d="M187.199 79.2752C188.719 79.2314 189.58 80.354 190.775 80.8934C192.393 81.6151 193.214 81.2943 192.921 79.5522C200.602 84.0206 200.667 84.7714 193.709 89.699C193.084 90.1437 192.385 90.5082 191.718 90.9164C191.1 90.8216 191.401 88.8243 190.157 90.2166C189.491 90.9674 186.67 90.8799 188.629 92.8626C187.369 95.1297 188.288 97.5862 187.857 99.9261C187.646 101.056 188.077 102.244 187.434 103.33C187.247 103.25 187.158 103.148 187.166 103.01C187.174 102.864 187.207 102.791 187.256 102.791C188.101 99.4158 185.622 96.5584 185.606 93.2927C184.264 94.86 185.728 96.8281 184.321 98.3006C183.208 97.2728 183.46 95.9606 183.517 94.7506C183.63 92.1774 183.387 89.7646 181.111 87.8694C180.68 87.5049 180.469 86.9728 180.574 86.3969L180.721 86.2584C181.452 84.8589 180.615 83.7436 179.891 82.621C179.526 82.0524 178.526 81.79 178.819 80.8934L178.981 80.7185C180.176 80.2738 180.867 81.0465 181.59 81.6297C182.639 82.4679 183.76 83.2916 184.549 84.3122C186.483 86.8124 188.467 88.8243 192.092 86.5063C193.157 86.8562 194.506 87.053 195.278 86.55C196.814 85.5514 196.928 84.2028 195.189 83.073C195.303 83.4228 194.986 83.0001 195.051 83.124C196.107 85.2015 195.506 86.3532 192.864 86.4552C192.962 84.4142 191.368 83.3645 189.857 82.2347C188.751 81.411 187.223 80.8788 187.191 79.2752H187.199Z" fill="#78617E"/>
<path id="Vector_6" d="M49.1332 150.536C48.4992 150.602 47.8652 150.668 47.2312 150.733C37.5668 150.689 27.9024 150.646 18.2461 150.609C19.1565 149.756 20.335 150.114 21.3998 150.114C28.8615 150.084 36.3232 150.099 43.793 150.092C45.5649 150.332 47.4344 149.589 49.1332 150.536Z" fill="#78617E"/>
<path id="Vector_7" d="M187.264 102.798C187.321 102.973 187.386 103.156 187.443 103.33C187.459 111.094 187.467 118.857 187.483 126.627C186.727 126.248 186.768 125.6 186.768 124.958C186.768 117.975 186.768 110.992 186.768 104.016C186.768 103.556 186.817 103.112 187.264 102.798Z" fill="#78617E"/>
<path id="Vector_8" d="M188.638 92.8628C187.703 92.6004 186.76 92.338 185.069 91.8642C188.215 91.0696 190.036 89.5097 191.978 88.0591C193.067 89.2983 191.133 89.9543 191.718 90.9165C190.792 91.6892 189.881 92.4983 188.638 92.8628Z" fill="#78617E"/>
<path id="Vector_9" d="M118.776 20.7412C121.011 22.1772 122.994 23.8611 124.856 25.6616L124.661 25.8365C124.059 26.2447 123.466 26.2447 122.881 25.8001C121.052 25.1586 120.06 23.5258 118.304 22.7312C117.288 22.272 118.077 21.492 118.581 20.9307L118.776 20.7412Z" fill="#78617E"/>
<path id="Vector_10" d="M173.462 51.2984C172.178 49.5635 172.666 47.7776 173.275 45.9917C173.34 47.763 173.405 49.5344 173.462 51.2984Z" fill="#78617E"/>
<path id="Vector_11" d="M180.583 86.3969C185.679 89.3929 183.964 94.1091 184.33 98.3006C183.728 108.834 183.265 119.367 184.265 129.907C184.907 131.344 184.679 132.809 184.411 134.274C184.541 138.079 184.574 141.891 184.858 145.689C185.004 147.643 184.248 148.138 182.151 148.109C174.251 147.978 166.342 147.942 158.433 148.007C156.296 148.022 155.849 147.635 156.629 145.762C159.401 139.114 162.863 132.78 166.903 126.693C169.902 122.173 173.007 117.705 175.99 113.178C178.835 108.848 180.388 104.409 178.859 99.1826C178.258 97.1342 178.616 95.3702 175.478 95.5087C174.942 95.5306 174.682 94.9328 174.47 94.357C173.552 91.9004 172.771 91.7984 170.585 93.6499C170.292 93.8977 170.048 94.306 169.715 94.3716C162.148 95.7711 157.515 100.874 152.378 105.342C152.321 105.393 152.183 105.357 151.939 105.371C151.89 103.287 151.085 102.011 148.411 103.061C148.094 103.184 147.566 103.17 147.281 103.01C146.192 102.383 146.517 96.4199 147.647 95.7128C148.143 95.4067 148.696 95.1734 149.232 94.911C150.484 94.2914 151.549 93.5041 150.687 92.1191C149.891 90.8435 148.663 91.2225 147.55 91.8494C145.103 93.2198 145.623 91.1642 145.461 90.2895C144.233 83.7363 142.218 77.4455 138.885 71.4463C132.773 60.4685 122.905 53.9226 109.859 50.9266C106.34 50.1175 102.812 49.2865 99.13 49.3302C96.5046 49.6218 93.8792 49.6364 91.2538 49.3302C81.8332 49.8332 73.4287 52.749 66.5441 58.5222C55.5304 67.7506 50.6454 79.6834 48.5808 92.746C46.7113 100.101 46.2074 107.595 45.5734 115.081C44.7118 125.213 44.9719 135.375 44.5899 145.521C44.533 147.089 44.0127 147.475 42.3383 147.46C33.633 147.388 24.9278 147.336 16.2225 147.453C14.0035 147.482 13.4995 146.739 13.4589 144.967C13.2882 137.897 13.0118 130.826 12.7436 123.763C12.6786 121.962 12.8574 120.14 12.2153 118.383C11.565 117.355 11.7682 116.298 12.0771 115.234C12.1177 113.011 12.3209 110.773 11.5731 108.593C11.0285 107.551 11.0611 106.494 11.5487 105.444C17.905 96.7771 25.83 89.1888 32.5601 80.7841C50.0764 58.9085 70.088 38.8626 89.4412 18.3283C90.9124 16.7611 91.6683 17.5629 92.7494 18.3429C101.447 24.6045 109.64 31.3837 118.077 37.915C137.487 52.9312 157.263 67.5611 176.299 82.9709C177.722 84.1226 179.144 85.2744 180.566 86.4188L180.583 86.3969Z" fill="#FEFEFE"/>
<path id="Vector_12" d="M68.0719 116.306C70.8192 116.007 72.9569 117.574 75.4035 118.223C76.7446 118.58 78.0695 119.061 78.7604 117.596C79.4838 116.065 78.0939 115.518 76.8422 115.088C74.3956 114.25 71.9653 113.361 69.4618 112.683C68.0881 112.311 67.5598 111.757 67.446 110.452C66.942 104.679 66.2999 98.9203 65.6903 93.1616C65.5928 92.2723 65.7635 91.3393 65.2026 90.5229C64.5198 89.8814 64.7312 89.1962 65.0726 88.5037C65.0807 85.0558 65.0726 81.6079 65.1132 78.1673C65.1295 77.0812 65.0969 75.7836 66.3162 75.2661C67.4866 74.7704 68.2995 75.8638 69.1367 76.4397C73.2333 79.2753 76.8341 82.6065 80.5324 85.8285C82.7839 87.7893 85.2386 88.3433 88.2867 87.731C97.2521 85.9305 106.258 84.2612 115.24 82.5191C120.336 81.535 120.669 81.2434 121.401 76.6365C122.043 72.6054 122.36 68.538 123.555 64.4194C125.424 65.0099 126.302 66.3876 127.042 67.6559C132.033 76.2502 136.869 84.91 141.851 93.5042C142.64 94.8673 141.575 95.0787 140.795 95.5161C137.617 97.2874 134.422 99.0296 131.212 100.75C130.017 101.391 128.781 102.062 129.619 103.483C130.488 104.963 131.838 104.351 133.008 103.731C135.707 102.303 138.397 100.867 141.047 99.3649C142.412 98.5922 142.876 98.7307 143.022 100.262C143.388 104.088 143.469 104.103 139.169 105.073C136.82 105.605 134.447 106.042 132.098 106.574C130.813 106.866 129.781 107.5 130.204 108.878C130.602 110.175 131.838 110.066 132.951 109.833C135.804 109.249 138.673 108.688 141.469 107.937C142.331 107.704 142.949 107.544 143.615 108.127C144.087 109.752 143.932 111.378 143.697 113.011C144.014 114.286 142.973 114.993 142.233 115.817C139.559 118.784 136.91 121.765 135.479 125.425C135.016 126.605 134.162 128.027 135.983 128.727C137.804 129.426 138.324 128.063 138.86 126.78C139.795 124.564 141.266 122.611 142.843 120.708C148.224 114.199 154.353 108.28 160.863 102.689C162.083 101.639 163.334 100.582 165.261 99.8314C164.797 101.187 164.757 102.368 166.212 102.871C167.878 103.447 168.496 102.128 169.268 101.238C170.008 100.378 170.666 99.4597 171.357 98.5704C171.739 98.082 172.162 97.7685 172.852 98.1986C173.698 98.7235 173.031 99.1462 172.722 99.5253C171.771 100.699 170.731 101.814 169.821 103.01C169.219 103.804 168.975 104.686 170.008 105.43C171.162 106.253 172.088 105.823 172.877 104.956C173.681 104.074 174.429 103.148 175.502 101.894C176.193 104.745 175.307 106.8 174.259 108.827C171.576 114.031 167.813 118.667 164.586 123.58C159.864 130.775 155.523 138.123 152.654 146.097C152.134 147.541 151.353 148.029 149.63 148C143.762 147.898 137.885 147.978 132.016 147.985C131.342 148.277 130.626 148.182 129.927 148.182C111.81 148.182 93.6838 148.189 75.5661 148.16C74.7451 148.16 73.7291 148.612 73.0788 147.701C71.6483 143.24 71.4613 138.597 70.5916 134.048C70.4534 133.348 70.6566 132.576 70.0714 131.963C69.3886 131.336 69.6812 130.637 69.8763 129.944C69.665 128.698 70.5266 128.209 71.6564 127.837C73.8348 127.116 75.9725 126.307 78.1427 125.578C79.4838 125.126 80.2235 124.368 79.6627 123.092C79.1099 121.838 77.8663 122.071 76.8097 122.414C75.1028 122.961 73.3714 123.515 71.7702 124.266C69.5918 125.286 69.0716 124.441 68.8766 122.64C68.7221 121.219 69.0147 119.717 68.1938 118.376C67.6329 117.705 67.7792 117.005 68.0881 116.298L68.0719 116.306Z" fill="#FEFEFE"/>
<path id="Vector_13" d="M147.606 110.036C146.168 106.333 148.76 106.275 151.451 105.911C150.459 107.587 149.11 108.637 147.606 110.036Z" fill="white"/>
<path id="Vector_14" d="M91.2617 49.3085C93.8871 49.0752 96.5125 49.0825 99.1379 49.3085C96.5125 50.0593 93.8871 50.0738 91.2617 49.3085Z" fill="#78617E"/>
<path id="Vector_15" d="M143.68 113.003C143.656 111.378 143.624 109.745 143.599 108.119C144.534 109.737 144.42 111.363 143.68 113.003Z" fill="#78617E"/>
<path id="Vector_16" d="M184.411 134.274C184.362 132.816 184.313 131.365 184.265 129.907C185.346 131.336 185.175 132.794 184.411 134.274Z" fill="#78617E"/>
<path id="Vector_17" d="M68.0721 116.305C68.1046 116.998 68.1453 117.69 68.1778 118.383C68.129 118.733 68.0884 119.09 68.0396 119.44C67.6169 118.383 67.1049 117.333 68.0721 116.305Z" fill="#78617E"/>
<path id="Vector_18" d="M65.0647 88.4961C65.1053 89.1667 65.1541 89.8373 65.1947 90.5153C63.7154 89.9175 64.5363 89.2032 65.0647 88.4961Z" fill="#78617E"/>
<path id="Vector_19" d="M69.8523 129.937C69.9174 130.607 69.9824 131.285 70.0474 131.956C68.755 131.38 69.2996 130.658 69.8523 129.937Z" fill="#78617E"/>
<path id="Vector_20" d="M187.199 79.2753C188.979 80.6675 190.645 82.2202 192.58 83.4157C194.303 84.4799 193.856 85.2745 192.718 86.2658C192.628 86.5137 192.441 86.6667 192.149 86.6886C188.166 88.9702 188.215 88.9337 184.923 85.7191C183.086 83.9259 181.322 82.038 178.989 80.7113C168.845 72.0806 158.059 64.106 147.484 55.9127C129.773 42.1867 112.054 28.4826 94.2772 14.8295C90.0912 11.6076 90.8959 11.1192 87.1244 15.4564C78.4517 25.4137 68.7466 34.5838 59.6837 44.2569C46.1909 58.6608 33.8116 73.8519 20.9528 88.7005C17.2301 93.0012 13.4424 97.2583 9.68715 101.53C9.06128 101.8 8.43541 102.026 7.76077 101.632C3.43657 99.4014 3.29839 99.2045 6.22454 95.8951C27.5367 71.7817 47.7596 46.8884 70.5592 23.8319C76.3952 17.9275 81.6135 11.5274 87.8316 5.91454C90.7171 3.31222 90.9853 3.24661 94.0334 5.63754C104.543 13.8965 114.988 22.221 125.465 30.509C126.367 31.2234 127.335 31.8795 128.277 32.5647C136.983 40.0436 146.387 46.8228 155.361 54.032C165.09 61.8536 174.828 69.6605 184.581 77.4675C185.411 78.1308 186.337 78.6848 187.215 79.2898L187.199 79.2753Z" fill="#BC96C6"/>
<path id="Vector_21" d="M9.63864 134.427V127.363C13.215 129.995 11.9877 133.574 12.1584 136.876C12.3209 139.923 13.2394 142.926 12.4591 146.024C12.2884 146.695 12.8655 147.577 13.2638 148.284C13.5727 148.823 15.0195 149.129 13.9791 149.88C13.1744 150.463 12.6948 149.297 12.0446 148.947C10.4758 148.116 10.9635 146.731 10.9961 145.507C11.0286 144.34 12.6461 143.123 10.4433 142.037C9.90687 141.774 10.5084 140.01 10.6628 138.932C10.8904 137.372 11.9877 135.491 9.61426 134.354L9.63864 134.419V134.427Z" fill="#78617E"/>
<path id="Vector_22" d="M118.272 20.9233C118.418 21.368 117.662 22.0168 118.751 22.2646C120.247 22.5999 120.832 23.861 121.71 24.8232C120.702 24.9179 117.101 22.7311 117.02 21.922C116.947 21.1566 117.557 20.9598 118.272 20.9306V20.9233Z" fill="#78617E"/>
<path id="Vector_23" d="M178.827 80.8936C180.566 81.863 180.647 83.9551 182.509 85.0267C183.24 85.4494 181.655 86.1346 180.729 86.2659C180.111 84.5966 180.07 82.694 178.022 81.6152C177.567 81.3747 178.314 80.9519 178.835 80.9008L178.827 80.8936Z" fill="#78617E"/>
<path id="Vector_24" d="M129.058 30.5161C127.92 30.9243 127.391 30.1006 126.806 29.5685C126.148 28.9853 124.969 29.2769 124.53 28.4022C126.53 27.3379 127.074 27.5931 129.066 30.5161H129.058Z" fill="#78617E"/>
<path id="Vector_25" d="M11.565 105.422C11.5731 106.472 11.5812 107.522 11.5894 108.571C11.5406 108.914 11.4918 109.264 11.4431 109.607C11.313 109.614 11.1911 109.628 11.061 109.636C11.061 108.229 11.061 106.829 11.0692 105.422C11.0692 105.386 11.2155 105.32 11.2886 105.328C11.378 105.328 11.4674 105.393 11.5569 105.43L11.565 105.422Z" fill="#78617E"/>
<path id="Vector_26" d="M12.1013 115.212C12.1501 116.262 12.1907 117.311 12.2395 118.361C10.9877 117.355 11.4917 116.283 12.1013 115.212Z" fill="#78617E"/>
<path id="Vector_27" d="M122.88 25.7925C123.474 25.8071 124.067 25.8143 124.66 25.8289C124.612 26.2736 124.539 26.7328 123.913 26.7838C123.116 26.8567 122.962 26.3392 122.88 25.7925Z" fill="#78617E"/>
<path id="Vector_28" d="M7.76904 101.625C8.4193 101.763 9.01266 101.005 9.69542 101.523C9.14271 102.893 8.46807 102.412 7.76904 101.625Z" fill="#BC96C6"/>
<path id="Vector_29" d="M169.178 38.3231C168.918 45.8531 169.861 53.332 170.308 60.8474C169.235 61.0661 168.878 60.2424 168.333 59.8123C160.343 53.5507 152.402 47.2235 144.379 40.9983C142.957 39.8903 141.925 38.8042 142.583 37.0912C143.193 35.5094 144.835 36.282 146.005 36.129C151.89 35.3344 157.897 35.5531 163.765 34.5836C164.505 34.0515 165.277 34.2046 166.057 34.4743C167.025 34.5034 167.992 34.5326 168.951 34.5617C169.812 35.7791 169.382 37.062 169.17 38.3304L169.178 38.3231Z" fill="#FEFEFE"/>
<path id="Vector_30" d="M158.889 22.7239C161.319 22.7239 163.749 22.7895 166.171 22.7021C168.114 22.6292 168.748 23.3873 168.935 24.9764C169.642 30.9974 169.691 30.9537 162.619 31.4202C156.775 31.8065 150.939 32.2439 145.103 32.7542C143.437 32.9 142.697 32.6521 142.762 31.0412C143.087 22.877 141.413 23.934 150.712 23.1321C153.41 22.8989 156.166 23.0957 158.889 23.0957C158.889 22.9718 158.889 22.8479 158.889 22.7166V22.7239Z" fill="#BC96C6"/>
<path id="Vector_31" d="M141.892 31.7628V24.8232C141.981 24.8232 142.063 24.8232 142.152 24.8232V31.7628C142.063 31.7628 141.981 31.7628 141.892 31.7628Z" fill="#78617E"/>
<path id="Vector_32" d="M169.178 38.3233C169.105 37.0695 169.032 35.8085 168.959 34.5547C170.259 35.7502 169.942 37.0258 169.178 38.3233Z" fill="#78617E"/>
<path id="Vector_33" d="M166.066 34.467C165.302 34.5035 164.538 34.5399 163.774 34.5764C163.587 34.5326 163.367 34.5254 163.229 34.4233C162.944 34.2192 163.001 33.9859 163.375 34.0005C164.294 34.0297 165.31 33.6944 166.066 34.467Z" fill="#78617E"/>
<path id="Vector_34" d="M192.149 86.6957C192.336 86.5572 192.531 86.4114 192.718 86.2729C194.498 85.8209 195.872 85.2523 194.035 83.4081C193.466 82.8395 194.246 82.3147 194.222 81.1411C195.571 82.978 198.383 83.5029 197.302 85.5877C196.376 87.3809 194.457 88.5545 192.149 86.6957Z" fill="#78617E"/>
<path id="Vector_35" d="M185.557 89.6116C184.102 88.5984 184.151 87.5925 183.834 86.0981C185.256 87.2061 185.955 87.9715 185.557 89.6116Z" fill="#78617E"/>
<path id="Vector_36" d="M115.541 120.526C118.248 119.564 120.442 118.113 121.678 115.635C122.149 114.695 122.929 113.849 124.287 114.403C125.766 115.001 125.514 116.145 125.075 117.209C122.799 122.779 114.614 125.541 108.949 122.494C107.258 121.583 106.527 121.576 105.177 122.968C100.918 127.371 93.294 128.107 88.7747 124.776C87.4173 123.777 86.3769 122.538 85.8648 121.036C85.5234 120.052 85.5153 118.966 86.889 118.536C88.0269 118.179 88.7097 118.733 89.3112 119.637C92.5299 124.477 99.0569 124.681 102.958 120.169C104.015 118.952 104.267 118.048 102.585 117.115C101.3 116.4 100.089 115.562 98.9512 114.673C97.1386 113.251 97.48 111.524 99.8453 111.101C103.584 110.438 107.388 109.993 111.192 109.731C113.59 109.563 114.427 110.948 113.273 112.923C112.582 114.111 111.639 115.205 110.68 116.247C108.697 118.398 108.754 118.784 111.574 119.987C112.111 120.22 112.672 120.41 113.224 120.621C114.029 121.204 114.801 121.138 115.541 120.519V120.526Z" fill="#78617E"/>
<path id="Vector_37" d="M78.7445 97.7465C86.1411 97.9506 92.0584 100.429 95.5129 106.64C96.1225 107.733 96.4395 108.768 95.0903 109.482C93.7247 110.197 92.8794 109.512 92.2454 108.367C89.0266 102.557 83.4507 100.721 76.6474 101.078C75.1193 101.158 73.2661 101.661 73.1848 99.6344C73.1116 97.9724 74.9161 97.8995 76.3223 97.761C77.1188 97.6809 77.9398 97.7465 78.7526 97.7465H78.7445Z" fill="#78617E"/>
<path id="Vector_38" d="M130.773 90.7487C132.146 91.9587 131.919 93.0011 130.155 93.526C123.49 95.5233 118.475 99.0878 115.825 105.072C115.419 105.984 114.655 106.581 113.435 106.137C112.094 105.648 112.094 104.708 112.468 103.658C113.346 101.202 114.874 99.0878 116.809 97.2144C119.857 94.2549 123.409 91.9441 127.774 90.7633C128.773 91.084 129.773 90.6904 130.773 90.7487Z" fill="#78617E"/>
<path id="Vector_39" d="M130.773 90.7489C129.781 91.4414 128.773 91.4341 127.773 90.7635C128.773 90.5229 129.765 89.9689 130.773 90.7489Z" fill="#78617E"/>
<path id="Vector_40" d="M115.541 120.526C114.817 121.605 113.614 121.277 112.688 121.065C112.289 120.971 112.98 120.745 113.224 120.628C113.996 120.591 114.768 120.562 115.541 120.526Z" fill="#78617E"/>
</g>
</g>
</svg>
