<svg width="136" height="82" viewBox="0 0 136 82" fill="none" xmlns="http://www.w3.org/2000/svg">
<mask id="mask0_1090_1987" style="mask-type:luminance" maskUnits="userSpaceOnUse" x="37" y="0" width="63" height="63">
<path d="M68.1512 62.3321C85.3684 62.3321 99.2887 48.3845 99.2887 31.1661C99.2887 13.9476 85.3684 0 68.1512 0C50.934 0 37.0137 13.9476 37.0137 31.1661C37.0137 48.3845 50.934 62.3321 68.1512 62.3321Z" fill="white"/>
</mask>
<g mask="url(#mask0_1090_1987)">
<path d="M68.1512 62.3321C85.3684 62.3321 99.2887 48.3845 99.2887 31.1661C99.2887 13.9476 85.3684 0 68.1512 0C50.934 0 37.0137 13.9476 37.0137 31.1661C37.0137 48.3845 50.934 62.3321 68.1512 62.3321Z" fill="#143630"/>
</g>
<mask id="mask1_1090_1987" style="mask-type:luminance" maskUnits="userSpaceOnUse" x="37" y="0" width="63" height="63">
<path d="M68.1512 62.3321C85.3684 62.3321 99.2887 48.3845 99.2887 31.1661C99.2887 13.9476 85.3684 0 68.1512 0C50.934 0 37.0137 13.9476 37.0137 31.1661C37.0137 48.3845 50.934 62.3321 68.1512 62.3321Z" fill="white"/>
</mask>
<g mask="url(#mask1_1090_1987)">
<path d="M68.1512 62.3321C85.3684 62.3321 99.2887 48.3845 99.2887 31.1661C99.2887 13.9476 85.3684 0 68.1512 0C50.934 0 37.0137 13.9476 37.0137 31.1661C37.0137 48.3845 50.934 62.3321 68.1512 62.3321Z" fill="#143630"/>
</g>
<mask id="mask2_1090_1987" style="mask-type:luminance" maskUnits="userSpaceOnUse" x="37" y="0" width="63" height="63">
<path d="M68.1512 62.3321C85.3684 62.3321 99.2887 48.3845 99.2887 31.1661C99.2887 13.9476 85.3684 0 68.1512 0C50.934 0 37.0137 13.9476 37.0137 31.1661C37.0137 48.3845 50.934 62.3321 68.1512 62.3321Z" fill="white"/>
</mask>
<g mask="url(#mask2_1090_1987)">
<path d="M77.6143 28.2037C79.6901 28.0803 81.2775 27.0311 82.6207 25.55C83.2312 24.9328 83.5975 24.3774 84.5744 24.0071C88.4818 22.7111 92.1451 20.7362 95.3809 18.2676C95.6862 18.0207 95.9915 17.8356 96.2967 17.6504C94.8925 13.5155 92.6335 9.68921 89.764 6.54175C87.2608 8.20805 84.6965 9.75093 81.888 11.0469C80.0564 11.7875 78.2248 12.5898 76.3932 13.207C72.7299 14.503 70.1657 17.1567 68.0898 20.4276C68.8225 20.6745 68.8225 20.9213 68.3341 21.4151C68.212 21.4151 68.3341 21.7853 68.5783 21.9088C68.7004 21.7853 68.8225 21.6619 68.9446 21.4151C70.1657 19.1316 72.2415 17.959 74.1952 16.7247C74.3173 16.6013 74.5616 16.7247 74.6837 16.7247C74.6837 16.9716 74.5616 17.2184 74.4395 17.2184C73.5847 17.7122 72.7299 18.2059 71.9973 18.8847C70.2878 20.1808 69.1888 21.7853 68.5783 23.8219C68.4562 24.0688 68.5783 24.4391 68.4562 24.8094C68.8225 24.6859 69.0667 24.5625 69.433 24.4391C69.433 24.9328 69.3109 25.3031 69.1888 25.982C69.5551 25.982 69.9215 25.982 70.2878 26.1054C70.532 25.3648 70.6541 24.5625 70.8983 23.9454C71.5089 22.1556 72.6078 20.6745 74.3173 19.6253C75.05 19.1316 75.9047 18.6379 76.7595 18.2059C77.0037 18.0824 77.2479 18.2059 77.4921 18.0824C77.37 18.3293 77.37 18.5762 77.1258 18.823C76.2711 19.3167 75.4163 19.8105 74.5616 20.4893C72.852 21.6619 71.8752 23.2665 71.3868 25.3031C71.2646 25.6734 71.3868 26.0437 71.3868 26.4757C71.7531 26.3523 72.1194 26.2288 72.3636 26.2288C72.3636 26.4757 72.3636 26.846 72.3636 27.0928C73.5847 27.5866 75.5384 26.846 76.0269 25.6734C77.0037 23.3899 78.7132 21.8471 80.7891 20.8596C80.9112 20.7362 81.1554 20.8596 81.3996 20.8596C81.2775 21.1065 81.2775 21.3533 81.1554 21.4768C80.9112 21.7236 80.6669 21.8471 80.4227 21.9705C78.469 22.9579 77.2479 24.6242 76.3932 26.5374C76.149 26.9077 75.9047 27.4014 76.6374 27.8334C76.7595 27.5866 76.8816 27.3397 77.1258 27.2163C77.37 27.0928 77.6143 26.9694 77.8585 26.9694C77.8585 27.2163 77.7364 27.4631 77.7364 27.71C77.7364 27.9568 77.7364 27.9568 77.6143 28.2037Z" fill="#FCFCFC"/>
</g>
<mask id="mask3_1090_1987" style="mask-type:luminance" maskUnits="userSpaceOnUse" x="37" y="0" width="63" height="63">
<path d="M68.1512 62.3321C85.3684 62.3321 99.2887 48.3845 99.2887 31.1661C99.2887 13.9476 85.3684 0 68.1512 0C50.934 0 37.0137 13.9476 37.0137 31.1661C37.0137 48.3845 50.934 62.3321 68.1512 62.3321Z" fill="white"/>
</mask>
<g mask="url(#mask3_1090_1987)">
<path d="M80.2408 41.8427C79.9965 42.213 79.7523 42.5833 79.4471 42.8919C76.2723 45.9159 72.4259 47.5205 68.1521 48.0759C65.0994 48.4462 61.9856 48.5696 58.8719 48.3228C56.0634 48.0759 53.2549 47.5822 50.6296 46.533C49.4085 46.0393 48.3096 45.3605 47.0885 44.9285C43.7916 43.7559 40.4947 42.7067 37.1978 41.5958C37.0146 41.5341 36.7704 41.5341 36.5872 41.5341C34.023 38.325 33.2293 33.758 36.0988 27.1545C36.2819 27.3397 36.4651 27.5865 36.6483 27.7717C40.4336 31.0426 44.8905 32.894 49.8359 33.3878C50.2633 33.4495 50.6907 33.5112 51.118 33.5729C50.5686 34.19 49.7138 34.4986 49.5306 35.3626C49.7749 35.3009 49.958 35.1775 50.1412 35.0541C52.0949 33.326 54.3539 32.1535 56.9182 31.598C59.2993 31.1043 61.6804 30.734 64.0615 30.3637C64.7941 30.2403 65.5878 30.1786 66.3205 30.1786C66.9921 30.1786 67.3584 30.8574 66.9921 31.4129C66.6868 31.9066 66.2594 32.4003 65.771 32.7089C64.7331 33.3878 63.6341 33.9432 62.5351 34.4369C60.3982 35.3009 58.6887 36.6586 57.2845 38.5101C57.1624 38.6952 57.1013 38.9421 57.0403 39.189C57.1013 39.189 57.1013 39.2507 57.1624 39.2507C57.3455 39.1272 57.5287 39.0655 57.7119 38.9421C57.7119 39.0038 57.7729 39.0038 57.7729 39.0655C59.1772 42.1513 61.7414 43.6324 64.9773 43.941C66.5647 44.1262 68.1521 44.0644 69.8005 44.0644C71.2048 44.0644 72.609 43.8793 73.9522 43.2621C75.2954 42.7067 76.6386 42.0278 78.0428 41.4107C78.5923 41.1638 79.2028 41.0404 79.8134 40.9787C80.2408 40.917 80.546 41.349 80.2408 41.8427Z" fill="#FCFCFC"/>
<path d="M76.6996 36.0415C76.6386 36.2883 76.6996 36.5969 76.5775 36.782C75.7838 38.4484 74.9291 40.1147 74.1354 41.781C73.8301 42.3981 73.3417 42.7684 72.6701 42.8918C69.4953 43.509 66.3205 43.509 63.1457 42.8918C63.0846 42.8918 63.0236 42.8301 62.9625 42.8301C62.9015 42.8301 62.9015 42.7684 62.7793 42.7067C63.4509 42.3364 64.1836 42.1512 64.9162 42.0895C66.1984 41.9044 67.5415 41.7192 68.8237 41.5341C70.4111 41.349 71.6322 40.4849 72.6701 39.2506C73.5859 38.0781 74.5627 36.9055 75.8449 36.1649C76.0891 36.0415 76.3944 35.9798 76.6386 35.8563C76.6386 35.9798 76.6386 36.0415 76.6996 36.0415Z" fill="#FCFCFC"/>
<path d="M61.8627 42.5832C61.3132 42.2747 60.8248 41.9661 60.3364 41.5958C60.1532 41.4107 60.3974 41.3489 60.5806 41.2872C61.4964 41.0404 62.4732 40.7935 63.389 40.6084C65.5259 40.1764 67.2965 39.1272 68.7007 37.3992C69.4334 36.5352 70.3492 35.7946 71.1429 34.9923C71.3871 34.7454 71.7534 34.4986 72.0587 34.7454C72.364 34.9923 72.1808 35.3626 72.0587 35.6712C71.5703 37.2758 70.7766 38.7569 69.9829 40.2381C69.6776 40.7935 69.1281 40.9787 68.5786 41.0404C67.1133 41.2255 65.648 41.4107 64.1827 41.6575C63.6333 41.7192 63.1448 41.9661 62.6564 42.1512C62.4122 42.213 62.229 42.2747 61.9848 42.3364C61.9238 42.5215 61.9238 42.5215 61.8627 42.5832Z" fill="#FCFCFC"/>
<path d="M58.5666 39.5592C59.4214 39.4358 60.2761 39.3741 61.0698 39.189C62.9014 38.757 64.3667 37.6461 65.7099 36.3501C66.1984 35.9181 66.6868 35.5478 67.1752 35.1775C67.2973 35.0541 67.5415 35.1158 67.7858 35.1158C67.7858 35.3009 67.9079 35.5478 67.8468 35.6712C67.4805 36.5969 67.0531 37.5227 66.6257 38.3867C66.3205 39.0655 65.7099 39.4358 64.9773 39.6827C63.3899 40.1147 61.8635 40.485 60.2761 40.917C59.8488 41.0404 59.5435 40.917 59.3603 40.6084C59.0551 40.2381 58.8108 39.9295 58.5666 39.5592Z" fill="#FCFCFC"/>
</g>
<path d="M107.925 64.5116C107.344 64.6795 106.483 65.3823 106.016 66.3939C105.618 67.3898 105.693 68.3871 106.238 68.5532C106.757 68.7616 107.672 67.9742 108.271 68.0556C108.87 68.137 109.645 68.6857 110.375 68.375C111.079 68.1066 110.541 66.1638 109.985 65.4567C109.415 64.6805 108.809 64.2385 107.925 64.5116Z" fill="#131313"/>
<path d="M111.668 63.5581C111.33 63.345 110.82 63.4972 110.523 63.9628C110.184 64.4019 110.168 64.985 110.478 65.2404C110.789 65.4958 111.327 65.3012 111.623 64.8356C111.962 64.3966 111.978 63.8135 111.668 63.5581Z" fill="#131313"/>
<path d="M107.82 64.3085C108.304 64.1986 108.54 63.4569 108.318 62.7827C108.082 62.0395 107.518 61.6241 107.007 61.7764C106.538 61.9553 106.329 62.6547 106.551 63.3289C106.787 64.0721 107.351 64.4874 107.82 64.3085Z" fill="#131313"/>
<path d="M105.799 64.1189C105.416 63.6987 104.913 63.5593 104.613 63.8448C104.34 64.088 104.392 64.6557 104.706 65.0916C105.09 65.5118 105.592 65.6512 105.893 65.3657C106.208 65.1492 106.155 64.5815 105.799 64.1189Z" fill="#131313"/>
<path d="M110.249 62.8987C110.346 62.1885 110.083 61.4878 109.553 61.3908C109.024 61.2938 108.52 61.8066 108.422 62.5167C108.298 63.2693 108.588 63.9276 109.049 64.0403C109.551 64.1797 110.125 63.6512 110.249 62.8987Z" fill="#131313"/>
<path d="M11.5977 81.5916C11.5977 81.822 11.4623 81.9372 11.1914 81.9372H9.40168C9.19848 81.9372 8.97966 81.8665 8.7452 81.7251C8.51075 81.5785 8.32839 81.4031 8.19814 81.1989L6.82266 79.0075C6.49443 78.4734 6.16358 78.0728 5.83013 77.8058C5.49669 77.5335 5.09551 77.3974 4.62659 77.3974H2.94633V81.2146C2.94633 81.4188 2.87339 81.5916 2.7275 81.733C2.58683 81.8691 2.41489 81.9372 2.2117 81.9372H0.742443C0.539248 81.9372 0.364709 81.8639 0.218825 81.7173C0.0729418 81.5654 0 81.3874 0 81.1832V71.4202C0 71.216 0.0729418 71.038 0.218825 70.8861C0.364709 70.7343 0.539248 70.6583 0.742443 70.6583H2.2117C2.41489 70.6583 2.58683 70.7343 2.7275 70.8861C2.87339 71.038 2.94633 71.216 2.94633 71.4202V75.1824H4.62659C5.08509 75.1824 5.48627 75.0568 5.83013 74.8054C6.17921 74.5541 6.51006 74.1483 6.82266 73.588L8.03402 71.4202C8.31016 70.9175 8.68528 70.6636 9.15941 70.6583H10.9647C11.2148 70.6583 11.3398 70.7683 11.3398 70.9882C11.3398 71.1086 11.2956 71.2526 11.207 71.4202L9.51109 74.507C9.26621 74.9573 8.99008 75.3291 8.68268 75.6223C8.38049 75.9155 7.98452 76.1223 7.49477 76.2428C7.83864 76.3161 8.19032 76.5334 8.54982 76.8947C8.91453 77.256 9.23495 77.6487 9.51109 78.0728L11.4649 81.1989C11.5535 81.3507 11.5977 81.4816 11.5977 81.5916Z" fill="#131313"/>
<path d="M12.7231 81.2146V71.4202C12.7231 71.216 12.7961 71.0406 12.942 70.894C13.0878 70.7473 13.2624 70.674 13.4656 70.674H14.9192C15.1328 70.674 15.31 70.7473 15.4506 70.894C15.5965 71.0406 15.6695 71.216 15.6695 71.4202V81.1989C15.6695 81.4031 15.5939 81.5785 15.4428 81.7251C15.2969 81.8665 15.1224 81.9372 14.9192 81.9372H13.4656C13.2624 81.9372 13.0878 81.8691 12.942 81.733C12.7961 81.5916 12.7231 81.4188 12.7231 81.2146Z" fill="#131313"/>
<path d="M16.9512 72.1585V71.4202C16.9512 71.2055 17.0215 71.0275 17.1622 70.8861C17.3028 70.7447 17.48 70.674 17.6936 70.674H27.6111C27.8247 70.674 28.0018 70.7447 28.1425 70.8861C28.2832 71.0275 28.3535 71.2055 28.3535 71.4202V72.1585C28.3535 72.3732 28.2832 72.5512 28.1425 72.6926C28.0018 72.8288 27.8247 72.8968 27.6111 72.8968H24.1255V81.2146C24.1255 81.4188 24.0526 81.5916 23.9067 81.733C23.766 81.8691 23.5941 81.9372 23.3909 81.9372H21.9138C21.7106 81.9372 21.5361 81.8691 21.3902 81.733C21.2495 81.5916 21.1792 81.4188 21.1792 81.2146V72.8968H17.6936C17.48 72.8968 17.3028 72.8288 17.1622 72.6926C17.0215 72.5512 16.9512 72.3732 16.9512 72.1585Z" fill="#131313"/>
<path d="M35.2465 81.1989V71.4202C35.2465 71.216 35.3195 71.0406 35.4653 70.894C35.6112 70.7473 35.791 70.674 36.0046 70.674H37.4582C37.6614 70.674 37.8334 70.7473 37.974 70.894C38.1199 71.0406 38.1928 71.216 38.1928 71.4202V74.9547H43.5697V71.4202C43.5697 71.216 43.6426 71.0406 43.7885 70.894C43.9344 70.7473 44.109 70.674 44.3121 70.674H45.7658C45.9794 70.674 46.1565 70.7473 46.2972 70.894C46.4431 71.0406 46.516 71.216 46.516 71.4202V81.1989C46.516 81.4031 46.4405 81.5785 46.2894 81.7251C46.1435 81.8665 45.969 81.9372 45.7658 81.9372H44.3121C44.109 81.9372 43.9344 81.8691 43.7885 81.733C43.6426 81.5916 43.5697 81.4188 43.5697 81.2146V77.1774H38.1928V81.2146C38.1928 81.4188 38.1199 81.5916 37.974 81.733C37.8334 81.8691 37.6614 81.9372 37.4582 81.9372H36.0046C35.8014 81.9372 35.6243 81.8665 35.4732 81.7251C35.3221 81.5785 35.2465 81.4031 35.2465 81.1989Z" fill="#131313"/>
<path d="M47.8446 81.2146L49.8062 73.7372C50.3377 71.7003 52.0674 70.6793 54.9955 70.674H59.2079C59.4007 70.674 59.5596 70.7473 59.6846 70.894C59.8149 71.0406 59.88 71.2108 59.88 71.4045V81.2146C59.88 81.4188 59.8071 81.5916 59.6612 81.733C59.5153 81.8691 59.3408 81.9372 59.1376 81.9372H57.6683C57.4547 81.9372 57.2776 81.8691 57.1369 81.733C57.0014 81.5916 56.9337 81.4136 56.9337 81.1989V79.2196H51.3771L50.8535 81.1989C50.8014 81.4136 50.6841 81.5916 50.5018 81.733C50.3194 81.8691 50.1267 81.9372 49.9235 81.9372H48.3839C48.1807 81.9372 48.0348 81.8796 47.9462 81.7644C47.8576 81.644 47.8134 81.5392 47.8134 81.4502C47.8186 81.3612 47.829 81.2827 47.8446 81.2146ZM51.9554 76.9968H56.9337V72.8968H54.7064C54.2062 72.8968 53.7685 73.0408 53.3934 73.3288C53.0235 73.6116 52.7734 73.9938 52.6431 74.4755L51.9554 76.9968Z" fill="#131313"/>
<path d="M67.7265 71.4202C67.7265 71.216 67.7994 71.0406 67.9453 70.894C68.0912 70.7473 68.2657 70.674 68.4689 70.674H74.8227C76.3805 70.674 77.5293 71.1244 78.2692 72.025C78.6808 72.5224 78.8866 73.1586 78.8866 73.9336C78.8866 74.7033 78.5349 75.3762 77.8315 75.9522C78.8319 76.4915 79.332 77.3293 79.332 78.4656C79.332 79.6018 78.9308 80.4658 78.1285 81.0575C77.3313 81.644 76.3518 81.9372 75.19 81.9372H68.4689C68.2657 81.9372 68.0912 81.8665 67.9453 81.7251C67.7994 81.5785 67.7265 81.4031 67.7265 81.1989V71.4202ZM70.6728 79.8165H75.1431C75.5443 79.8165 75.8517 79.6961 76.0653 79.4552C76.2789 79.2143 76.3857 78.8845 76.3857 78.4656C76.3857 78.0467 76.2789 77.7168 76.0653 77.4759C75.8517 77.235 75.5443 77.1146 75.1431 77.1146H70.6728V79.8165ZM70.6728 75.0489H74.8539C75.1822 75.0489 75.4453 74.952 75.6433 74.7583C75.8412 74.5593 75.9402 74.2844 75.9402 73.9336C75.9402 73.5775 75.8412 73.3 75.6433 73.101C75.4453 72.9021 75.1822 72.8026 74.8539 72.8026H70.6728V75.0489Z" fill="#131313"/>
<path d="M80.9341 81.1989V71.4202C80.9341 71.2055 81.0045 71.0275 81.1451 70.8861C81.2858 70.7447 81.463 70.674 81.6766 70.674H83.0521C83.2553 70.674 83.4272 70.7447 83.5679 70.8861C83.7137 71.0275 83.7867 71.2003 83.7867 71.4045V79.2667L88.2335 71.4202C88.3534 71.216 88.5175 71.0406 88.7259 70.894C88.9343 70.7473 89.1271 70.674 89.3042 70.674H91.6097C91.8129 70.674 91.9848 70.7473 92.1255 70.894C92.2662 71.0406 92.3365 71.216 92.3365 71.4202V81.1989C92.3365 81.4031 92.2636 81.5785 92.1177 81.7251C91.9718 81.8665 91.7973 81.9372 91.5941 81.9372H90.2186C90.0154 81.9372 89.8409 81.8665 89.695 81.7251C89.5543 81.5785 89.484 81.4031 89.484 81.1989V73.91L85.4044 81.1989C85.2846 81.4031 85.1153 81.5785 84.8964 81.7251C84.6776 81.8665 84.4666 81.9372 84.2634 81.9372H81.6766C81.4734 81.9372 81.2989 81.8665 81.153 81.7251C81.0071 81.5785 80.9341 81.4031 80.9341 81.1989Z" fill="#131313"/>
<path d="M94.5795 81.1989V71.4202C94.5795 71.216 94.6498 71.0406 94.7905 70.894C94.9312 70.7473 95.1031 70.674 95.3063 70.674H101.269C104.421 70.674 105.997 72.135 105.997 75.0568C105.997 77.9734 104.421 79.4316 101.269 79.4316H97.5258V81.1989C97.5258 81.4031 97.4529 81.5785 97.307 81.7251C97.1663 81.8665 96.9944 81.9372 96.7912 81.9372H95.3219C95.1187 81.9372 94.9442 81.8665 94.7983 81.7251C94.6524 81.5785 94.5795 81.4031 94.5795 81.1989ZM97.5258 77.2089H100.378C101.254 77.2089 101.918 77.0622 102.371 76.769C102.825 76.4706 103.051 75.8998 103.051 75.0568C103.051 74.2085 102.825 73.6377 102.371 73.3445C101.918 73.0461 101.254 72.8968 100.378 72.8968H97.5258V77.2089Z" fill="#131313"/>
<path d="M107.443 81.2146V71.4202C107.443 71.216 107.516 71.0406 107.662 70.894C107.808 70.7473 107.983 70.674 108.186 70.674H109.639C109.853 70.674 110.03 70.7473 110.171 70.894C110.317 71.0406 110.39 71.216 110.39 71.4202V81.1989C110.39 81.4031 110.314 81.5785 110.163 81.7251C110.017 81.8665 109.843 81.9372 109.639 81.9372H108.186C107.983 81.9372 107.808 81.8691 107.662 81.733C107.516 81.5916 107.443 81.4188 107.443 81.2146Z" fill="#131313"/>
<path d="M113.438 80.6098C112.474 79.683 111.992 78.2509 111.992 76.3135C111.992 74.3708 112.474 72.9361 113.438 72.0093C114.407 71.0772 115.858 70.6112 117.791 70.6112H119.533C120.716 70.6112 121.761 70.9201 122.667 71.538C123.579 72.1559 124.035 73.0015 124.035 74.075C124.035 74.3839 123.944 74.6065 123.761 74.7426C123.579 74.8735 123.402 74.939 123.23 74.939H122.3C121.821 74.939 121.448 74.651 121.182 74.075C120.797 73.2476 120.156 72.834 119.26 72.834H117.869C116.728 72.834 115.954 73.0801 115.548 73.5723C115.141 74.0645 114.938 74.9756 114.938 76.3056C114.938 77.6356 115.141 78.5493 115.548 79.0468C115.954 79.539 116.728 79.7851 117.869 79.7851H119.424C120.32 79.7851 120.958 79.3714 121.339 78.5441C121.604 77.9629 121.98 77.6723 122.464 77.6723H123.394C123.639 77.6723 123.832 77.7639 123.972 77.9472C124.118 78.1304 124.191 78.3294 124.191 78.5441C124.191 79.6175 123.738 80.4632 122.831 81.0811C121.925 81.6937 120.88 82 119.698 82H117.791C115.858 82 114.407 81.5366 113.438 80.6098Z" fill="#131313"/>
<path d="M124.598 72.1585V71.4202C124.598 71.2055 124.668 71.0275 124.809 70.8861C124.949 70.7447 125.126 70.674 125.34 70.674H135.258C135.471 70.674 135.648 70.7447 135.789 70.8861C135.93 71.0275 136 71.2055 136 71.4202V72.1585C136 72.3732 135.93 72.5512 135.789 72.6926C135.648 72.8288 135.471 72.8968 135.258 72.8968H131.772V81.2146C131.772 81.4188 131.699 81.5916 131.553 81.733C131.412 81.8691 131.241 81.9372 131.037 81.9372H129.56C129.357 81.9372 129.183 81.8691 129.037 81.733C128.896 81.5916 128.826 81.4188 128.826 81.2146V72.8968H125.34C125.126 72.8968 124.949 72.8288 124.809 72.6926C124.668 72.5512 124.598 72.3732 124.598 72.1585Z" fill="#131313"/>
</svg>
