<svg width="21" height="22" viewBox="0 0 21 22" fill="none" xmlns="http://www.w3.org/2000/svg">
<path fill-rule="evenodd" clip-rule="evenodd" d="M9.88606 0.210648C10.2472 -0.0702159 10.7528 -0.0702159 11.1139 0.210648L20.1139 7.21065C20.3575 7.4001 20.5 7.69141 20.5 8V19C20.5 19.7957 20.1839 20.5587 19.6213 21.1213C19.0587 21.6839 18.2957 22 17.5 22H3.5C2.70435 22 1.94129 21.6839 1.37868 21.1213C0.81607 20.5587 0.5 19.7957 0.5 19V8C0.5 7.69141 0.642473 7.4001 0.886059 7.21065L9.88606 0.210648ZM2.5 8.48908V19C2.5 19.2652 2.60536 19.5196 2.79289 19.7071C2.98043 19.8946 3.23478 20 3.5 20H17.5C17.7652 20 18.0196 19.8946 18.2071 19.7071C18.3946 19.5196 18.5 19.2652 18.5 19V8.48908L10.5 2.26686L2.5 8.48908Z" fill="white"/>
<path fill-rule="evenodd" clip-rule="evenodd" d="M6.5 11C6.5 10.4477 6.94772 10 7.5 10H13.5C14.0523 10 14.5 10.4477 14.5 11V21C14.5 21.5523 14.0523 22 13.5 22C12.9477 22 12.5 21.5523 12.5 21V12H8.5V21C8.5 21.5523 8.05228 22 7.5 22C6.94772 22 6.5 21.5523 6.5 21V11Z" fill="white"/>
</svg>
